<svg xmlns="http://www.w3.org/2000/svg"
   viewBox="0 0 32 32">
  <path fill="orange"
     d="m 24.4375,17.240234 c -3.770828,0 -6.771484,2.998704 -6.771484,6.894532 0,3.854162 2.938156,6.9375 6.771484,6.9375 3.729162,0 6.791016,-3.062505 6.791016,-6.9375 0,-3.83333 -3.041021,-6.894532 -6.791016,-6.894532 z m 0,2.5625 c 2.291665,0 4.083984,1.957035 4.083984,4.332032 0,2.354163 -1.792319,4.355468 -4.083984,4.355468 -2.312497,0 -4.0625,-2.001305 -4.0625,-4.355468 0,-2.374997 1.750003,-4.332032 4.0625,-4.332032 z"/>
  <path fill="orange"
     d="M 24.1875,1.46875 4.4589844,30.53125 H 7.7910156 L 27.5,1.46875 Z"/>
  <path fill="orange"
     d="m 1.9628906,0.578125 v 14.53125 h 6.3125 c 3.1041594,0 4.8652344,-1.792324 4.8652344,-4.271484 0,-1.7253056 -0.904319,-2.9426977 -2.599609,-3.5664066 1.321706,-0.6629345 1.921875,-1.8334781 1.921875,-3.078125 0,-2.2395776 -1.906257,-3.6152344 -4.4687504,-3.6152344 z m 2.5117188,2.0625 H 7.890625 c 1.2916633,0 2.0410156,0.7402371 2.0410156,1.8027344 0,1.156247 -0.9160188,1.9257812 -2.1660156,1.9257812 H 4.4746094 Z m 0,5.7910156 h 3.3125 c 1.7083289,0 2.8222656,0.8138061 2.8222656,2.2929684 0,1.406247 -0.9687543,2.291016 -2.625,2.291016 H 4.4746094 Z"/>
</svg>
