<svg viewBox="0 0 25.693033 29.062523" xmlns="http://www.w3.org/2000/svg" fill="#FF9900">
  <path d="m 17.178729,28.590819 h 2.056636 v -4.722647 h 2.606766 c 2.302079,0 3.850904,-1.438799 3.850904,-3.546217 0,-2.107418 -1.565752,-3.537754 -3.850904,-3.537754 h -4.663402 z m 2.056636,-6.406889 v -3.715487 h 2.395178 c 1.227211,0 2.005855,0.736326 2.005855,1.853512 0,1.108722 -0.77018,1.861975 -2.005855,1.861975 z"/>
  <path d="M 1.4469402,29.062521 H 4.7802761 L 24.488625,5.1998901e-8 h -3.312503 z"/>
  <path d="M -8.71521e-8,12.278313 H 5.1288962 c 2.5221303,0 3.9524663,-1.455726 3.9524663,-3.4700447 0,-1.4895806 -0.829426,-2.5136672 -2.3782506,-2.9876246 V 6.0322318 C 7.9641775,5.5244203 8.5312335,4.5003338 8.5312335,3.408539 8.5312335,1.5888811 6.9824082,0.47169575 4.900381,0.47169575 H -8.71521e-8 Z M 2.0397095,10.577145 V 6.8531938 h 2.691401 c 1.3880181,0 2.293615,0.660155 2.293615,1.8619755 0,1.142576 -0.7871075,1.8619757 -2.132808,1.8619757 z m 0,-5.3997292 v -3.029942 h 2.7760363 c 1.0494771,0 1.6588509,0.6009103 1.6588509,1.4641898 0,0.9394513 -0.7447902,1.5657522 -1.7604132,1.5657522 z"/>
</svg>
