<?xml version="1.0" encoding="UTF-8" standalone="no"?>
<!-- Created with Inkscape (http://www.inkscape.org/) -->

<svg
   width="32"
   height="32"
   viewBox="0 0 32 32"
   version="1.1"
   id="svg1"
   inkscape:version="1.3 (0e150ed, 2023-07-21)"
   sodipodi:docname="bp.svg"
   xmlns:inkscape="http://www.inkscape.org/namespaces/inkscape"
   xmlns:sodipodi="http://sodipodi.sourceforge.net/DTD/sodipodi-0.dtd"
   xmlns="http://www.w3.org/2000/svg"
   xmlns:svg="http://www.w3.org/2000/svg">
  <sodipodi:namedview
     id="namedview1"
     pagecolor="#505050"
     bordercolor="#ffffff"
     borderopacity="1"
     inkscape:showpageshadow="0"
     inkscape:pageopacity="0"
     inkscape:pagecheckerboard="1"
     inkscape:deskcolor="#505050"
     inkscape:document-units="px"
     inkscape:zoom="14.323604"
     inkscape:cx="15.708337"
     inkscape:cy="13.962967"
     inkscape:window-width="1440"
     inkscape:window-height="795"
     inkscape:window-x="0"
     inkscape:window-y="25"
     inkscape:window-maximized="1"
     inkscape:current-layer="svg1" />
  <defs
     id="defs1" />
  <path
     style="font-size:42.6667px;font-family:'Grantha Sangam MN';-inkscape-font-specification:'Grantha Sangam MN';display:none;opacity:0.5"
     d="m 7.5416604,14.760416 c 3.7291696,0 6.7916716,-3.041669 6.7916716,-6.9375048 0,-3.8333362 -3.041669,-6.89583848 -6.7916716,-6.89583848 -3.7500028,0 -6.77083841,3.00000228 -6.77083841,6.89583848 0,3.8750028 2.93750221,6.9375048 6.77083841,6.9375048 z"
     id="path8"
     inkscape:label="o" />
  <path
     id="path10"
     style="font-size:42.6667px;font-family:'Grantha Sangam MN';-inkscape-font-specification:'Grantha Sangam MN';display:inline;fill:#000000"
     d="m 24.4375,17.240234 c -3.770832,0 -6.771484,2.9987 -6.771484,6.894532 0,3.854166 2.938152,6.9375 6.771484,6.9375 3.729166,0 6.791016,-3.062501 6.791016,-6.9375 0,-3.833333 -3.041017,-6.894532 -6.791016,-6.894532 z m 0,2.5625 c 2.291667,0 4.083984,1.957033 4.083984,4.332032 0,2.354166 -1.792317,4.355468 -4.083984,4.355468 -2.312499,0 -4.0625,-2.001302 -4.0625,-4.355468 0,-2.374999 1.750001,-4.332032 4.0625,-4.332032 z"
     inkscape:label="o" />
  <path
     style="font-size:42.6667px;font-family:'Grantha Sangam MN';-inkscape-font-specification:'Grantha Sangam MN';display:inline;fill:#000000"
     d="M 4.4583247,30.531261 H 7.7916606 L 27.500009,1.4687398 h -3.312503 z"
     id="text4"
     inkscape:label="/" />
  <path
     d="m 1.9635329,15.109358 h 6.31249 c 3.1041621,0 4.8645761,-1.791664 4.8645761,-4.270827 0,-1.8333302 -1.020832,-3.0937449 -2.927079,-3.6770773 V 7.42187 c 1.552081,-0.624999 2.249996,-1.8854137 2.249996,-3.2291616 0,-2.2395798 -1.906247,-3.61457761 -4.4687426,-3.61457761 H 1.9635329 Z M 4.4739456,13.015611 V 8.432285 h 3.3124948 c 1.7083306,0 2.8229126,0.8124988 2.8229126,2.291663 0,1.406248 -0.9687489,2.291663 -2.6249963,2.291663 z m 0,-6.6458227 V 2.6406275 h 3.4166613 c 1.2916646,0 2.0416634,0.7395822 2.0416634,1.8020805 0,1.1562482 -0.9166652,1.9270803 -2.1666632,1.9270803 z"
     id="text3"
     style="font-weight:bold;font-size:21.3333px;font-family:'Grantha Sangam MN';-inkscape-font-specification:'Grantha Sangam MN Bold'"
     inkscape:label="B"
     aria-label="B" />
</svg>
